<!-- Generated by IcoMoon.io -->
<svg version="1.1" xmlns="http://www.w3.org/2000/svg" width="28" height="28" viewBox="0 0 28 28">
<title>code-outline</title>
<path d="M9.133 22.167c-0.934 0-1.814-0.364-2.474-1.026l-5.974-5.974 5.974-5.975c1.322-1.323 3.631-1.323 4.95 0.001 1.364 1.363 1.364 3.584-0.001 4.948l-1.024 1.026 1.024 1.025c1.365 1.364 1.365 3.585 0 4.949-0.658 0.662-1.538 1.026-2.474 1.026zM3.983 15.167l4.325 4.325c0.443 0.442 1.212 0.44 1.648 0.001 0.456-0.456 0.456-1.196 0.001-1.651l-2.674-2.675 2.674-2.675c0.455-0.455 0.455-1.195 0-1.65-0.441-0.442-1.209-0.44-1.65 0l-4.325 4.325z"></path>
<path d="M18.867 22.167c-0.937 0-1.817-0.364-2.476-1.027-1.364-1.363-1.364-3.584 0.001-4.948l1.024-1.025-1.024-1.026c-1.365-1.364-1.365-3.585 0-4.949 1.317-1.322 3.627-1.323 4.949 0l5.974 5.975-5.974 5.974c-0.66 0.662-1.54 1.026-2.474 1.026zM18.866 10.5c-0.312 0-0.604 0.121-0.823 0.341-0.456 0.456-0.456 1.196-0.001 1.651l2.674 2.675-2.674 2.675c-0.455 0.455-0.455 1.195 0 1.65 0.44 0.441 1.207 0.442 1.65 0l4.325-4.325-4.325-4.325c-0.222-0.221-0.514-0.342-0.826-0.342z"></path>
</svg>
