<!-- Generated by IcoMoon.io -->
<svg version="1.1" xmlns="http://www.w3.org/2000/svg" width="28" height="28" viewBox="0 0 28 28">
<title>export-outline</title>
<path d="M26.496 11.429c-0.048-0.048-4.731-4.779-6.979-7.17-0.49-0.483-1.166-0.758-1.85-0.758-1.379 0-2.5 1.045-2.5 2.333h-9.333c-0.645 0-1.167 0.523-1.167 1.167v16.333c0 0.644 0.522 1.167 1.167 1.167h16.333c0.645 0 1.167-0.523 1.167-1.167v-7.053c1.673-1.705 3.136-3.184 3.163-3.21 0.451-0.455 0.451-1.188 0-1.643zM17.825 18.598c-0.026 0.032-0.076 0.069-0.159 0.069-0.086 0-0.141-0.027-0.168-0.047v-4.62h-1.167c-2.066 0.040-3.892 0.793-5.545 2.284 0.502-2.584 1.867-5.784 5.545-5.784h1.167v-4.618c0.033-0.024 0.083-0.049 0.168-0.049 0.105 0 0.177 0.058 0.18 0.058 1.675 1.779 4.726 4.885 6.18 6.358-0.295 0.3-5.066 5.159-6.201 6.348zM7 22.167v-14h9.333c0 0.406 0 0.811 0 1.167-5.437 0-7 5.683-7 9.917v0.583c1.973-3.008 4.2-4.612 7-4.667 0 1.219 0 3.311 0 3.5 0 0.643 0.597 1.167 1.334 1.167 0.425 0 0.789-0.184 1.030-0.456 0.629-0.659 1.449-1.506 2.305-2.384v5.173h-14.002z"></path>
</svg>
