<!-- Generated by IcoMoon.io -->
<svg version="1.1" xmlns="http://www.w3.org/2000/svg" width="28" height="28" viewBox="0 0 28 28">
<title>facebook</title>
<path d="M25.648 14q0-2.406-0.902-4.512t-2.516-3.719-3.719-2.516-4.512-0.902-4.512 0.902-3.719 2.516-2.516 3.719-0.902 4.512q0 2.133 0.684 4.020t1.969 3.418 2.98 2.57 3.664 1.422v-7.93h-2.297v-3.5h2.297v-2.898q0-1.148 0.574-2.078t1.477-1.477 2.051-0.547h2.898v3.5h-2.297q-0.492 0-0.848 0.355t-0.355 0.793v2.352h3.5v3.5h-3.5v8.094q2.242-0.219 4.156-1.203t3.336-2.543 2.215-3.555 0.793-4.293z"></path>
</svg>
