<!-- Generated by IcoMoon.io -->
<svg version="1.1" xmlns="http://www.w3.org/2000/svg" width="28" height="28" viewBox="0 0 28 28">
<title>social-linkedin-circular</title>
<path d="M11.705 17.85h-1.867v-6.066h1.867v6.066zM10.772 11.006c-0.673 0-1.010-0.312-1.010-0.933 0-0.26 0.096-0.481 0.292-0.662 0.194-0.181 0.433-0.272 0.719-0.272 0.673 0 1.010 0.313 1.010 0.934s-0.336 0.932-1.010 0.932zM18.628 17.85h-1.905v-3.383c0-0.881-0.313-1.322-0.935-1.322-0.492 0-0.815 0.246-0.973 0.739-0.050 0.078-0.077 0.234-0.077 0.467v3.5h-1.905v-4.122c0-0.933-0.014-1.581-0.039-1.944h1.633l0.117 0.816c0.428-0.649 1.050-0.972 1.905-0.972 0.65 0 1.174 0.226 1.575 0.68 0.404 0.454 0.604 1.108 0.604 1.965v3.577z"></path>
<path d="M14 24.5c-5.79 0-10.5-4.71-10.5-10.5s4.71-10.5 10.5-10.5 10.5 4.71 10.5 10.5-4.71 10.5-10.5 10.5zM14 5.833c-4.502 0-8.167 3.664-8.167 8.167s3.665 8.167 8.167 8.167 8.167-3.665 8.167-8.167-3.665-8.167-8.167-8.167z"></path>
</svg>
