<!-- Generated by IcoMoon.io -->
<svg version="1.1" xmlns="http://www.w3.org/2000/svg" width="28" height="28" viewBox="0 0 28 28">
<title>user-outline</title>
<path d="M14 7c1.93 0 3.5 1.57 3.5 3.5s-1.57 3.5-3.5 3.5-3.5-1.57-3.5-3.5 1.57-3.5 3.5-3.5M14 4.667c-3.225 0-5.833 2.611-5.833 5.833s2.609 5.833 5.833 5.833 5.833-2.611 5.833-5.833-2.609-5.833-5.833-5.833z"></path>
<path d="M14 19.833c2.358 0 3.851 0.899 4.413 1.686-0.797 0.303-2.297 0.647-4.413 0.647-2.315 0-3.74-0.356-4.454-0.632 0.536-0.834 2.073-1.701 4.454-1.701M14 17.5c-4.375 0-7 2.333-7 4.667 0 1.167 2.625 2.333 7 2.333 4.104 0 7-1.167 7-2.333s-2.746-4.667-7-4.667z"></path>
</svg>
