<svg aria-hidden="true" style="position: absolute; width: 0; height: 0; overflow: hidden;" version="1.1" xmlns="http://www.w3.org/2000/svg" xmlns:xlink="http://www.w3.org/1999/xlink">
<defs>
<symbol id="icon-home-outline" viewBox="0 0 24 24">
<path d="M22.262 10.468c-3.39-2.854-9.546-8.171-9.607-8.225l-0.655-0.563-0.652 0.563c-0.062 0.053-6.221 5.368-9.66 8.248-0.438 0.394-0.688 0.945-0.688 1.509 0 1.104 0.896 2 2 2h1v6c0 1.104 0.896 2 2 2h12c1.104 0 2-0.896 2-2v-6h1c1.104 0 2-0.896 2-2 0-0.598-0.275-1.161-0.738-1.532zM14 20h-4v-5h4v5zM18 12l0.002 8c-0.002 0-3.002 0-3.002 0v-6h-6v6h-3v-8h-3.001c2.765-2.312 7.315-6.227 9.001-7.68 1.686 1.453 6.234 5.367 9 7.681 0 0-3 0-3-0.001z"></path>
</symbol>
<symbol id="icon-export-outline" viewBox="0 0 24 24">
<path d="M22.711 9.796c-0.041-0.041-4.055-4.096-5.982-6.146-0.42-0.414-0.999-0.65-1.586-0.65-1.182 0-2.143 0.896-2.143 2h-8c-0.553 0-1 0.448-1 1v14c0 0.552 0.447 1 1 1h14c0.553 0 1-0.448 1-1v-6.045c1.434-1.461 2.688-2.729 2.711-2.751 0.387-0.39 0.387-1.018 0-1.408zM15.279 15.941c-0.022 0.027-0.065 0.059-0.136 0.059-0.074 0-0.121-0.023-0.144-0.040v-3.96h-1c-1.771 0.034-3.336 0.68-4.753 1.958 0.43-2.215 1.6-4.958 4.753-4.958h1v-3.958c0.028-0.021 0.071-0.042 0.144-0.042 0.090 0 0.152 0.050 0.154 0.050 1.436 1.525 4.051 4.187 5.297 5.45-0.253 0.257-4.342 4.422-5.315 5.441zM6 19v-12h8c0 0.348 0 0.695 0 1-4.66 0-6 4.871-6 8.5v0.5c1.691-2.578 3.6-3.953 6-4 0 1.045 0 2.838 0 3 0 0.551 0.512 1 1.143 1 0.364 0 0.676-0.158 0.883-0.391 0.539-0.565 1.242-1.291 1.976-2.043v4.434h-12.002z"></path>
</symbol>
<symbol id="icon-user-outline" viewBox="0 0 24 24">
<path d="M12 6c1.654 0 3 1.346 3 3s-1.346 3-3 3-3-1.346-3-3 1.346-3 3-3M12 4c-2.764 0-5 2.238-5 5s2.236 5 5 5 5-2.238 5-5-2.236-5-5-5z"></path>
<path d="M12 17c2.021 0 3.301 0.771 3.783 1.445-0.683 0.26-1.969 0.555-3.783 0.555-1.984 0-3.206-0.305-3.818-0.542 0.459-0.715 1.777-1.458 3.818-1.458M12 15c-3.75 0-6 2-6 4 0 1 2.25 2 6 2 3.518 0 6-1 6-2s-2.354-4-6-4z"></path>
</symbol>
<symbol id="icon-code-outline" viewBox="0 0 24 24">
<path d="M7.828 19c-0.801 0-1.555-0.312-2.121-0.879l-5.121-5.121 5.121-5.121c1.133-1.134 3.112-1.134 4.243 0.001 1.169 1.168 1.169 3.072-0.001 4.241l-0.878 0.879 0.878 0.879c1.17 1.169 1.17 3.073 0 4.242-0.564 0.567-1.318 0.879-2.121 0.879zM3.414 13l3.707 3.707c0.38 0.379 1.039 0.377 1.413 0.001 0.391-0.391 0.391-1.025 0.001-1.415l-2.292-2.293 2.292-2.293c0.39-0.39 0.39-1.024 0-1.414-0.378-0.379-1.036-0.377-1.414 0l-3.707 3.707z"></path>
<path d="M16.172 19c-0.803 0-1.557-0.312-2.122-0.88-1.169-1.168-1.169-3.072 0.001-4.241l0.878-0.879-0.878-0.879c-1.17-1.169-1.17-3.073 0-4.242 1.129-1.133 3.109-1.134 4.242 0l5.121 5.121-5.121 5.121c-0.566 0.567-1.32 0.879-2.121 0.879zM16.171 9c-0.267 0-0.518 0.104-0.705 0.292-0.391 0.391-0.391 1.025-0.001 1.415l2.292 2.293-2.292 2.293c-0.39 0.39-0.39 1.024 0 1.414 0.377 0.378 1.035 0.379 1.414 0l3.707-3.707-3.707-3.707c-0.19-0.189-0.441-0.293-0.708-0.293z"></path>
</symbol>
<symbol id="icon-social-linkedin-circular" viewBox="0 0 24 24">
<path d="M10.033 15.3h-1.6v-5.199h1.6v5.199zM9.233 9.434c-0.577 0-0.866-0.267-0.866-0.8 0-0.223 0.082-0.412 0.25-0.567 0.166-0.155 0.371-0.233 0.616-0.233 0.577 0 0.866 0.268 0.866 0.801s-0.288 0.799-0.866 0.799zM15.967 15.3h-1.633v-2.9c0-0.755-0.268-1.133-0.801-1.133-0.422 0-0.699 0.211-0.834 0.633-0.043 0.067-0.066 0.201-0.066 0.4v3h-1.633v-3.533c0-0.8-0.012-1.355-0.033-1.666h1.4l0.1 0.699c0.367-0.556 0.9-0.833 1.633-0.833 0.557 0 1.006 0.194 1.35 0.583 0.346 0.389 0.518 0.95 0.518 1.684v3.066z"></path>
<path d="M12 21c-4.963 0-9-4.037-9-9s4.037-9 9-9 9 4.037 9 9-4.037 9-9 9zM12 5c-3.859 0-7 3.141-7 7s3.141 7 7 7 7-3.141 7-7-3.141-7-7-7z"></path>
</symbol>
<symbol id="icon-facebook" viewBox="0 0 24 24">
<path d="M21.984 12q0-2.063-0.773-3.867t-2.156-3.188-3.188-2.156-3.867-0.773-3.867 0.773-3.188 2.156-2.156 3.188-0.773 3.867q0 1.828 0.586 3.445t1.688 2.93 2.555 2.203 3.141 1.219v-6.797h-1.969v-3h1.969v-2.484q0-0.984 0.492-1.781t1.266-1.266 1.758-0.469h2.484v3h-1.969q-0.422 0-0.727 0.305t-0.305 0.68v2.016h3v3h-3v6.938q1.922-0.188 3.563-1.031t2.859-2.18 1.898-3.047 0.68-3.68z"></path>
</symbol>
<symbol id="icon-github" viewBox="0 0 24 28">
<path d="M12 2c6.625 0 12 5.375 12 12 0 5.297-3.437 9.797-8.203 11.391-0.609 0.109-0.828-0.266-0.828-0.578 0-0.391 0.016-1.687 0.016-3.297 0-1.125-0.375-1.844-0.812-2.219 2.672-0.297 5.484-1.313 5.484-5.922 0-1.313-0.469-2.375-1.234-3.219 0.125-0.313 0.531-1.531-0.125-3.187-1-0.313-3.297 1.234-3.297 1.234-0.953-0.266-1.984-0.406-3-0.406s-2.047 0.141-3 0.406c0 0-2.297-1.547-3.297-1.234-0.656 1.656-0.25 2.875-0.125 3.187-0.766 0.844-1.234 1.906-1.234 3.219 0 4.594 2.797 5.625 5.469 5.922-0.344 0.313-0.656 0.844-0.766 1.609-0.688 0.313-2.438 0.844-3.484-1-0.656-1.141-1.844-1.234-1.844-1.234-1.172-0.016-0.078 0.734-0.078 0.734 0.781 0.359 1.328 1.75 1.328 1.75 0.703 2.141 4.047 1.422 4.047 1.422 0 1 0.016 1.937 0.016 2.234 0 0.313-0.219 0.688-0.828 0.578-4.766-1.594-8.203-6.094-8.203-11.391 0-6.625 5.375-12 12-12zM4.547 19.234c0.031-0.063-0.016-0.141-0.109-0.187-0.094-0.031-0.172-0.016-0.203 0.031-0.031 0.063 0.016 0.141 0.109 0.187 0.078 0.047 0.172 0.031 0.203-0.031zM5.031 19.766c0.063-0.047 0.047-0.156-0.031-0.25-0.078-0.078-0.187-0.109-0.25-0.047-0.063 0.047-0.047 0.156 0.031 0.25 0.078 0.078 0.187 0.109 0.25 0.047zM5.5 20.469c0.078-0.063 0.078-0.187 0-0.297-0.063-0.109-0.187-0.156-0.266-0.094-0.078 0.047-0.078 0.172 0 0.281s0.203 0.156 0.266 0.109zM6.156 21.125c0.063-0.063 0.031-0.203-0.063-0.297-0.109-0.109-0.25-0.125-0.313-0.047-0.078 0.063-0.047 0.203 0.063 0.297 0.109 0.109 0.25 0.125 0.313 0.047zM7.047 21.516c0.031-0.094-0.063-0.203-0.203-0.25-0.125-0.031-0.266 0.016-0.297 0.109s0.063 0.203 0.203 0.234c0.125 0.047 0.266 0 0.297-0.094zM8.031 21.594c0-0.109-0.125-0.187-0.266-0.172-0.141 0-0.25 0.078-0.25 0.172 0 0.109 0.109 0.187 0.266 0.172 0.141 0 0.25-0.078 0.25-0.172zM8.937 21.438c-0.016-0.094-0.141-0.156-0.281-0.141-0.141 0.031-0.234 0.125-0.219 0.234 0.016 0.094 0.141 0.156 0.281 0.125s0.234-0.125 0.219-0.219z"></path>
</symbol>
<symbol id="icon-export-outline" viewBox="0 0 28 28">
<path d="M26.496 11.429c-0.048-0.048-4.731-4.779-6.979-7.17-0.49-0.483-1.166-0.758-1.85-0.758-1.379 0-2.5 1.045-2.5 2.333h-9.333c-0.645 0-1.167 0.523-1.167 1.167v16.333c0 0.644 0.522 1.167 1.167 1.167h16.333c0.645 0 1.167-0.523 1.167-1.167v-7.053c1.673-1.705 3.136-3.184 3.163-3.21 0.451-0.455 0.451-1.188 0-1.643zM17.825 18.598c-0.026 0.032-0.076 0.069-0.159 0.069-0.086 0-0.141-0.027-0.168-0.047v-4.62h-1.167c-2.066 0.040-3.892 0.793-5.545 2.284 0.502-2.584 1.867-5.784 5.545-5.784h1.167v-4.618c0.033-0.024 0.083-0.049 0.168-0.049 0.105 0 0.177 0.058 0.18 0.058 1.675 1.779 4.726 4.885 6.18 6.358-0.295 0.3-5.066 5.159-6.201 6.348zM7 22.167v-14h9.333c0 0.406 0 0.811 0 1.167-5.437 0-7 5.683-7 9.917v0.583c1.973-3.008 4.2-4.612 7-4.667 0 1.219 0 3.311 0 3.5 0 0.643 0.597 1.167 1.334 1.167 0.425 0 0.789-0.184 1.030-0.456 0.629-0.659 1.449-1.506 2.305-2.384v5.173h-14.002z"></path>
</symbol>
<symbol id="icon-user-outline" viewBox="0 0 28 28">
<path d="M14 7c1.93 0 3.5 1.57 3.5 3.5s-1.57 3.5-3.5 3.5-3.5-1.57-3.5-3.5 1.57-3.5 3.5-3.5M14 4.667c-3.225 0-5.833 2.611-5.833 5.833s2.609 5.833 5.833 5.833 5.833-2.611 5.833-5.833-2.609-5.833-5.833-5.833z"></path>
<path d="M14 19.833c2.358 0 3.851 0.899 4.413 1.686-0.797 0.303-2.297 0.647-4.413 0.647-2.315 0-3.74-0.356-4.454-0.632 0.536-0.834 2.073-1.701 4.454-1.701M14 17.5c-4.375 0-7 2.333-7 4.667 0 1.167 2.625 2.333 7 2.333 4.104 0 7-1.167 7-2.333s-2.746-4.667-7-4.667z"></path>
</symbol>
<symbol id="icon-code-outline" viewBox="0 0 28 28">
<path d="M9.133 22.167c-0.934 0-1.814-0.364-2.474-1.026l-5.974-5.974 5.974-5.975c1.322-1.323 3.631-1.323 4.95 0.001 1.364 1.363 1.364 3.584-0.001 4.948l-1.024 1.026 1.024 1.025c1.365 1.364 1.365 3.585 0 4.949-0.658 0.662-1.538 1.026-2.474 1.026zM3.983 15.167l4.325 4.325c0.443 0.442 1.212 0.44 1.648 0.001 0.456-0.456 0.456-1.196 0.001-1.651l-2.674-2.675 2.674-2.675c0.455-0.455 0.455-1.195 0-1.65-0.441-0.442-1.209-0.44-1.65 0l-4.325 4.325z"></path>
<path d="M18.867 22.167c-0.937 0-1.817-0.364-2.476-1.027-1.364-1.363-1.364-3.584 0.001-4.948l1.024-1.025-1.024-1.026c-1.365-1.364-1.365-3.585 0-4.949 1.317-1.322 3.627-1.323 4.949 0l5.974 5.975-5.974 5.974c-0.66 0.662-1.54 1.026-2.474 1.026zM18.866 10.5c-0.312 0-0.604 0.121-0.823 0.341-0.456 0.456-0.456 1.196-0.001 1.651l2.674 2.675-2.674 2.675c-0.455 0.455-0.455 1.195 0 1.65 0.44 0.441 1.207 0.442 1.65 0l4.325-4.325-4.325-4.325c-0.222-0.221-0.514-0.342-0.826-0.342z"></path>
</symbol>
<symbol id="icon-social-linkedin-circular" viewBox="0 0 28 28">
<path d="M11.705 17.85h-1.867v-6.066h1.867v6.066zM10.772 11.006c-0.673 0-1.010-0.312-1.010-0.933 0-0.26 0.096-0.481 0.292-0.662 0.194-0.181 0.433-0.272 0.719-0.272 0.673 0 1.010 0.313 1.010 0.934s-0.336 0.932-1.010 0.932zM18.628 17.85h-1.905v-3.383c0-0.881-0.313-1.322-0.935-1.322-0.492 0-0.815 0.246-0.973 0.739-0.050 0.078-0.077 0.234-0.077 0.467v3.5h-1.905v-4.122c0-0.933-0.014-1.581-0.039-1.944h1.633l0.117 0.816c0.428-0.649 1.050-0.972 1.905-0.972 0.65 0 1.174 0.226 1.575 0.68 0.404 0.454 0.604 1.108 0.604 1.965v3.577z"></path>
<path d="M14 24.5c-5.79 0-10.5-4.71-10.5-10.5s4.71-10.5 10.5-10.5 10.5 4.71 10.5 10.5-4.71 10.5-10.5 10.5zM14 5.833c-4.502 0-8.167 3.664-8.167 8.167s3.665 8.167 8.167 8.167 8.167-3.665 8.167-8.167-3.665-8.167-8.167-8.167z"></path>
</symbol>
<symbol id="icon-facebook" viewBox="0 0 28 28">
<path d="M25.648 14q0-2.406-0.902-4.512t-2.516-3.719-3.719-2.516-4.512-0.902-4.512 0.902-3.719 2.516-2.516 3.719-0.902 4.512q0 2.133 0.684 4.020t1.969 3.418 2.98 2.57 3.664 1.422v-7.93h-2.297v-3.5h2.297v-2.898q0-1.148 0.574-2.078t1.477-1.477 2.051-0.547h2.898v3.5h-2.297q-0.492 0-0.848 0.355t-0.355 0.793v2.352h3.5v3.5h-3.5v8.094q2.242-0.219 4.156-1.203t3.336-2.543 2.215-3.555 0.793-4.293z"></path>
</symbol>
<symbol id="icon-home1" viewBox="0 0 32 32">
<path d="M32 18.451l-16-12.42-16 12.42v-5.064l16-12.42 16 12.42zM28 18v12h-8v-8h-8v8h-8v-12l12-9z"></path>
</symbol>
</defs>
</svg>
